<svg xmlns="http://www.w3.org/2000/svg" width="24.404" height="30.391" viewBox="0 0 24.404 30.391">
  <g id="bill" transform="translate(-41.012)">
    <g id="Group_13" data-name="Group 13" transform="translate(41.012)">
      <g id="Group_12" data-name="Group 12" transform="translate(0)">
        <path id="Path_67" data-name="Path 67" d="M59.2,62.669l-.078,0h-16.4a1.64,1.64,0,0,0-1.714,1.562c0,.026,0,.052,0,.078V87.952l2.212-2.059a.991.991,0,0,1,1.3,0l2.9,2.593,2.86-2.593a1.03,1.03,0,0,1,1.3,0l2.86,2.593,2.9-2.593a.991.991,0,0,1,1.3,0l2.212,2.059V64.311A1.64,1.64,0,0,0,59.2,62.669Zm-13,5.722h4.881a.572.572,0,1,1,0,1.144H46.2a.572.572,0,1,1,0-1.144Zm9.457,11.058H46.2a.572.572,0,0,1,0-1.144h9.457a.572.572,0,0,1,0,1.144Zm0-4.957H46.2a.572.572,0,1,1,0-1.144h9.457a.572.572,0,0,1,0,1.144Z" transform="translate(-41.012 -58.095)" fill="#fff"/>
        <path id="Path_68" data-name="Path 68" d="M121.819,0h-16.4a1.754,1.754,0,0,0-1.716,1.754V3.432h13.537a2.822,2.822,0,0,1,2.86,2.783h0V23.26a.991.991,0,0,1,1.22.038l2.212,2.059V1.754A1.754,1.754,0,0,0,121.819,0Z" transform="translate(-99.13)" fill="#fff"/>
      </g>
    </g>
  </g>
</svg>
