<svg xmlns="http://www.w3.org/2000/svg" width="14.006" height="16.722" viewBox="0 0 14.006 16.722">
  <g id="book_1_" data-name="book (1)" transform="translate(-0.5)">
    <path id="Path_23" data-name="Path 23" d="M302.047,326.129H306.2v5.558h-4.158Zm0,0" transform="translate(-291.699 -315.478)" fill="#363636"/>
    <path id="Path_24" data-name="Path 24" d="M14.51.512V12.451L2.1,14.109l-1.6.213V2.383A2.4,2.4,0,0,1,2.1.144,2.444,2.444,0,0,1,2.93,0H14a.512.512,0,0,1,.512.512Zm0,0" transform="translate(-0.004 0)"/>
    <path id="Path_25" data-name="Path 25" d="M2.1,4.414V18.378l-1.6.213V6.652A2.4,2.4,0,0,1,2.1,4.414Zm0,0" transform="translate(-0.004 -4.269)" fill="#363636"/>
    <path id="Path_26" data-name="Path 26" d="M30.268,377.866,20.247,378l-1.8-.273-.866-1.253.205-1.321.683-.683,2.619-.547h7.345l1.81.752a2.376,2.376,0,0,0-.426,1.2,2.5,2.5,0,0,0,0,.342,2.376,2.376,0,0,0,.426,1.2Zm0,0" transform="translate(-16.524 -361.713)" fill="#e6e6e6"/>
    <path id="Path_27" data-name="Path 27" d="M1.525,367.982a1.383,1.383,0,0,0,1.392,1.334H13.994a.512.512,0,0,1,0,1.025H2.891a2.391,2.391,0,0,1-2.391-2.4,2.414,2.414,0,0,1,2.427-2.383H13.994a.512.512,0,0,1,0,1.025H2.891a1.368,1.368,0,0,0-1.366,1.4Zm0,0" transform="translate(0 -353.619)"/>
    <path id="Path_28" data-name="Path 28" d="M87.761,417.855a2.361,2.361,0,0,0-.094.512H77.64a.256.256,0,0,1,0-.512Zm0,0" transform="translate(-74.373 -404.208)" fill="#fff"/>
    <path id="Path_29" data-name="Path 29" d="M87.761,444.52H77.639a.256.256,0,0,1,0-.512H87.667a2.362,2.362,0,0,0,.094.512Zm0,0" transform="translate(-74.372 -429.507)" fill="#fff"/>
    <path id="Path_30" data-name="Path 30" d="M114.1,89.567h-7.419a.748.748,0,0,1-.748-.748V86.831a.748.748,0,0,1,.748-.748H114.1a.748.748,0,0,1,.748.748v1.988A.748.748,0,0,1,114.1,89.567Zm0,0" transform="translate(-101.987 -83.271)" fill="#e6e6e6"/>
    <g id="Group_9" data-name="Group 9" transform="translate(5.019 3.75)">
      <path id="Path_31" data-name="Path 31" d="M145.387,148.845h-6.251a.256.256,0,0,1,0-.512h6.251a.256.256,0,0,1,0,.512Zm0,0" transform="translate(-138.879 -147.238)" fill="#545d68"/>
      <path id="Path_32" data-name="Path 32" d="M145.387,115.341h-6.251a.256.256,0,0,1,0-.512h6.251a.256.256,0,0,1,0,.512Zm0,0" transform="translate(-138.879 -114.829)" fill="#545d68"/>
    </g>
  </g>
</svg>
