<svg xmlns="http://www.w3.org/2000/svg" width="15.584" height="15.505" viewBox="0 0 15.584 15.505">
  <g id="edit_2_" data-name="edit (2)" transform="translate(0 -0.261)">
    <path id="Path_64" data-name="Path 64" d="M14.383,47.392a.388.388,0,0,0-.388.388v3.446a1.166,1.166,0,0,1-1.164,1.164H1.941A1.166,1.166,0,0,1,.776,51.227V41.113a1.166,1.166,0,0,1,1.164-1.164H5.387a.388.388,0,0,0,0-.776H1.941A1.943,1.943,0,0,0,0,41.113V51.227a1.943,1.943,0,0,0,1.941,1.941h10.89a1.943,1.943,0,0,0,1.941-1.941V47.781a.388.388,0,0,0-.388-.388Zm0,0" transform="translate(0 -37.401)" fill="#06080d"/>
    <path id="Path_65" data-name="Path 65" d="M118.609.772a1.747,1.747,0,0,0-2.47,0L109.215,7.7a.388.388,0,0,0-.1.171l-.911,3.287a.388.388,0,0,0,.478.478l3.287-.911a.388.388,0,0,0,.171-.1L119.064,3.7a1.748,1.748,0,0,0,0-2.47ZM110.06,7.949l5.667-5.667,1.828,1.828-5.667,5.667Zm-.365.733,1.46,1.46-2.02.56Zm8.82-5.532-.412.412-1.828-1.828.412-.412a.97.97,0,0,1,1.372,0l.456.455A.972.972,0,0,1,118.515,3.149Zm0,0" transform="translate(-103.991)" fill="#06080d"/>
  </g>
</svg>
