<svg xmlns="http://www.w3.org/2000/svg" width="15.138" height="15.374" viewBox="0 0 15.138 15.374">
  <g id="homework" transform="translate(-3.878)">
    <rect id="Rectangle_14" data-name="Rectangle 14" width="14.664" height="8.988" transform="translate(4.115 6.15)" fill="#363636"/>
    <path id="Path_33" data-name="Path 33" d="M18.779,203.4H4.115a.223.223,0,0,1-.237-.237v-8.988a.223.223,0,0,1,.237-.237H18.779a.223.223,0,0,1,.237.237v8.988A.223.223,0,0,1,18.779,203.4Zm-14.428-.473H18.542v-8.515H4.351Z" transform="translate(0 -188.026)" fill="#363636"/>
    <path id="Path_34" data-name="Path 34" d="M253.185,169.891c-.591,0-1.064.71-1.064,1.3v8.657c0-.591.473-1.3,1.064-1.3h5.133v-8.657Z" transform="translate(-240.674 -164.711)" fill="#fff"/>
    <path id="Path_35" data-name="Path 35" d="M244.6,172.565a.223.223,0,0,1-.237-.237v-8.657a1.518,1.518,0,0,1,1.3-1.537H250.8a.223.223,0,0,1,.237.237v8.657a.223.223,0,0,1-.237.237h-5.133c-.449,0-.828.591-.828,1.064A.223.223,0,0,1,244.6,172.565Zm1.064-9.958c-.449,0-.828.591-.828,1.064v7.521a1.158,1.158,0,0,1,.828-.4h4.9v-8.184Z" transform="translate(-233.153 -157.191)" fill="#193651"/>
    <path id="Path_36" data-name="Path 36" d="M283.151,201.039a.112.112,0,0,1,.118-.118h4.186v6.765h-4.3v-6.646Z" transform="translate(-270.758 -194.795)" fill="#e1e6e9"/>
    <path id="Path_37" data-name="Path 37" d="M54.006,169.891c.591,0,1.064.71,1.064,1.3v8.657c0-.591-.473-1.3-1.064-1.3H48.873v-8.657Z" transform="translate(-43.623 -164.711)" fill="#fff"/>
    <path id="Path_38" data-name="Path 38" d="M47.548,172.564a.223.223,0,0,1-.237-.237c0-.473-.4-1.064-.828-1.064H41.352a.223.223,0,0,1-.237-.237V162.37a.223.223,0,0,1,.237-.237h5.133a1.518,1.518,0,0,1,1.3,1.537v8.657A.223.223,0,0,1,47.548,172.564Zm-5.96-1.774h4.9a1.158,1.158,0,0,1,.828.4V163.67c0-.473-.4-1.064-.828-1.064h-4.9Z" transform="translate(-36.102 -157.19)" fill="#193651"/>
    <path id="Path_39" data-name="Path 39" d="M84.208,207.686H79.9v-6.765h4.186a.112.112,0,0,1,.118.118Z" transform="translate(-73.707 -194.795)" fill="#e1e6e9"/>
    <g id="Group_10" data-name="Group 10" transform="translate(6.835 11.235)">
      <rect id="Rectangle_15" data-name="Rectangle 15" width="0.473" height="0.473" transform="translate(0)" fill="#193651"/>
      <rect id="Rectangle_16" data-name="Rectangle 16" width="0.473" height="0.473" transform="translate(1.277)" fill="#193651"/>
    </g>
    <rect id="Rectangle_17" data-name="Rectangle 17" width="0.473" height="0.473" transform="translate(9.389 11.235)" fill="#193651"/>
    <path id="Path_40" data-name="Path 40" d="M103.952,72.018l1.159,2.034a.111.111,0,0,0,.189,0l1.159-2.034V65.939h-2.507Z" transform="translate(-97.023 -63.929)" fill="#fff"/>
    <path id="Path_41" data-name="Path 41" d="M97.684,67.567h0a.4.4,0,0,1-.307-.166L96.194,65.32V58.958h2.98V65.32L97.992,67.4A.4.4,0,0,1,97.684,67.567Zm-1.017-2.389,1.017,1.774L98.7,65.179V59.407H96.667v5.771Z" transform="translate(-89.501 -57.16)" fill="#193651"/>
    <rect id="Rectangle_18" data-name="Rectangle 18" width="0.851" height="5.866" transform="translate(7.757 2.223)" fill="#2ea2db"/>
    <path id="Path_42" data-name="Path 42" d="M103.952,265.309l1.159,2.01a.111.111,0,0,0,.189,0l1.159-2.01" transform="translate(-97.023 -257.22)" fill="#fdbf5e"/>
    <path id="Path_43" data-name="Path 43" d="M98.436,264.619h0a.4.4,0,0,1-.307-.166l-1.159-2.01.4-.237,1.041,1.821,1.041-1.821.4.237-1.159,2.01A.266.266,0,0,1,98.436,264.619Z" transform="translate(-90.254 -254.212)" fill="#193651"/>
    <path id="Path_44" data-name="Path 44" d="M105.962,7.758h-1.514a.485.485,0,0,0-.5.5V9.532h2.507V8.255A.5.5,0,0,0,105.962,7.758Z" transform="translate(-97.023 -7.521)" fill="#363636"/>
    <g id="Group_11" data-name="Group 11" transform="translate(6.693)">
      <path id="Path_45" data-name="Path 45" d="M99.174,2.247h-2.98V.733A.737.737,0,0,1,96.927,0h1.49a.727.727,0,0,1,.733.733Zm-2.507-.473H98.7V.733a.262.262,0,0,0-.26-.26H96.927a.262.262,0,0,0-.26.26V1.774Z" transform="translate(-96.194)" fill="#193651"/>
      <path id="Path_46" data-name="Path 46" d="M128.776,309.527l.4.686a.111.111,0,0,0,.189,0l.4-.686Z" transform="translate(-127.783 -300.09)" fill="#193651"/>
      <path id="Path_47" data-name="Path 47" d="M116.487,302.976a.4.4,0,0,1-.307-.166l-.591-1.041h1.8l-.591,1.041A.4.4,0,0,1,116.487,302.976Zm-.071-.733.071.142.071-.142Z" transform="translate(-114.997 -292.569)" fill="#193651"/>
      <rect id="Rectangle_19" data-name="Rectangle 19" width="2.791" height="0.473" transform="translate(6.457 6.883)" fill="#193651"/>
      <rect id="Rectangle_20" data-name="Rectangle 20" width="2.791" height="0.473" transform="translate(6.457 8.018)" fill="#193651"/>
      <rect id="Rectangle_21" data-name="Rectangle 21" width="2.791" height="0.473" transform="translate(6.457 9.153)" fill="#193651"/>
      <rect id="Rectangle_22" data-name="Rectangle 22" width="2.791" height="0.473" transform="translate(6.457 10.289)" fill="#193651"/>
      <rect id="Rectangle_23" data-name="Rectangle 23" width="2.791" height="0.473" transform="translate(6.457 11.424)" fill="#193651"/>
    </g>
  </g>
</svg>
