<svg xmlns="http://www.w3.org/2000/svg" width="11.4" height="11.43" viewBox="0 0 11.4 11.43">
  <g id="lock_2_" data-name="lock (2)" transform="translate(-0.657)">
    <path id="Path_4" data-name="Path 4" d="M342.344,276.885a1.667,1.667,0,0,0-1.667,1.667v.476a.238.238,0,1,0,.476,0v-.476a1.191,1.191,0,1,1,2.381,0v.476a.238.238,0,0,0,.476,0v-.476A1.667,1.667,0,0,0,342.344,276.885Z" transform="translate(-332.43 -270.704)" fill="#546e7a"/>
    <path id="Path_5" data-name="Path 5" d="M319.582,362.219h3.81a.238.238,0,0,1,.238.238v2.857a.238.238,0,0,1-.238.238h-3.81a.238.238,0,0,1-.238-.238v-2.857A.238.238,0,0,1,319.582,362.219Z" transform="translate(-311.573 -354.133)" fill="#343434"/>
    <path id="Path_6" data-name="Path 6" d="M7.295,11.181V8.324a.714.714,0,0,1,.5-.677,2.134,2.134,0,0,1,.117-.5,2.758,2.758,0,0,1-.1-.381,1.98,1.98,0,0,0,.7-1.289.39.39,0,0,1,.058-.245.238.238,0,0,0,.163-.143,3.542,3.542,0,0,0,.255-1.041.238.238,0,0,0-.007-.058.613.613,0,0,0-.231-.347V2.381A2.483,2.483,0,0,0,6.372,0,2.483,2.483,0,0,0,3.991,2.381V3.644a.613.613,0,0,0-.231.347.238.238,0,0,0-.007.058,3.542,3.542,0,0,0,.255,1.041.2.2,0,0,0,.143.137c.026.013.076.082.076.251a1.98,1.98,0,0,0,.7,1.29c-.048.312-.282,1.134-.779,1.342l-2.111.7A1.66,1.66,0,0,0,.95,9.99L.664,11.133a.238.238,0,0,0,.231.3H7.341A.707.707,0,0,1,7.295,11.181Z" transform="translate(0)" fill="#343434"/>
    <path id="Path_7" data-name="Path 7" d="M394.963,405.362a.476.476,0,1,0-.952,0,.47.47,0,0,0,.238.4v.311a.238.238,0,0,0,.476,0v-.311A.47.47,0,0,0,394.963,405.362Z" transform="translate(-384.573 -395.848)" fill="#fafafa"/>
  </g>
</svg>
