<svg xmlns="http://www.w3.org/2000/svg" width="10.625" height="15" viewBox="0 0 10.625 15">
  <g id="lock_1_" data-name="lock (1)" transform="translate(-74.667)">
    <path id="Path_1" data-name="Path 1" d="M121.4,0a4.068,4.068,0,0,0-4.063,4.063v2.5a.313.313,0,0,0,.313.313h1.25a.313.313,0,0,0,.313-.313v-2.5a2.187,2.187,0,1,1,4.375,0v2.5a.313.313,0,0,0,.313.313h1.25a.313.313,0,0,0,.313-.313v-2.5A4.068,4.068,0,0,0,121.4,0Z" transform="translate(-41.416)" fill="#455a64"/>
    <path id="Path_2" data-name="Path 2" d="M76.229,213.333h7.5a1.562,1.562,0,0,1,1.562,1.563v5.625a1.562,1.562,0,0,1-1.562,1.563h-7.5a1.562,1.562,0,0,1-1.562-1.562V214.9A1.563,1.563,0,0,1,76.229,213.333Z" transform="translate(0 -207.083)" fill="#343434"/>
    <path id="Path_3" data-name="Path 3" d="M205.792,278.678a1.562,1.562,0,1,0-2.256,1.394l-.241,1.688a.312.312,0,0,0,.266.353.308.308,0,0,0,.044,0h1.25a.312.312,0,0,0,.316-.309.308.308,0,0,0,0-.048l-.241-1.687A1.568,1.568,0,0,0,205.792,278.678Z" transform="translate(-124.25 -268.99)" fill="#fff"/>
  </g>
</svg>
