<svg id="report_1_" data-name="report (1)" xmlns="http://www.w3.org/2000/svg" width="14.866" height="14.866" viewBox="0 0 14.866 14.866">
  <path id="Path_48" data-name="Path 48" d="M442,110h1.742v9.059H442Zm0,0" transform="translate(-429.166 -106.806)" fill="#363636"/>
  <path id="Path_49" data-name="Path 49" d="M442,70h1.742v1.161H442Zm0,0" transform="translate(-429.166 -67.967)" fill="#ede9e8"/>
  <path id="Path_50" data-name="Path 50" d="M443.742,10.871v.871H442v-.871a.871.871,0,0,1,1.742,0Zm0,0" transform="translate(-429.166 -9.71)" fill="#ffcebf"/>
  <path id="Path_51" data-name="Path 51" d="M443.742,422l-.871,2.323L442,422Zm0,0" transform="translate(-429.166 -409.747)" fill="#ffcebf"/>
  <path id="Path_52" data-name="Path 52" d="M17.9,10H10.581a.581.581,0,0,0-.581.581V23.705a.581.581,0,0,0,.581.581h9.64a.581.581,0,0,0,.581-.581V12.9Zm0,0" transform="translate(-9.71 -9.71)" fill="#ede9e8"/>
  <path id="Path_53" data-name="Path 53" d="M158.323,72.323H156V70A2.323,2.323,0,0,1,158.323,72.323Zm0,0" transform="translate(-151.47 -67.967)" fill="#f2df33"/>
  <path id="Path_54" data-name="Path 54" d="M78.323,72.323h2.323A2.323,2.323,0,1,1,78.323,70Zm0,0" transform="translate(-73.793 -67.967)" fill="#363636"/>
  <path id="Path_55" data-name="Path 55" d="M60.581,286.29a.29.29,0,1,1-.29-.29A.29.29,0,0,1,60.581,286.29Zm0,0" transform="translate(-58.258 -277.696)"/>
  <path id="Path_56" data-name="Path 56" d="M60.581,346.29a.29.29,0,1,1-.29-.29A.29.29,0,0,1,60.581,346.29Zm0,0" transform="translate(-58.258 -335.954)"/>
  <path id="Path_57" data-name="Path 57" d="M60.581,406.29a.29.29,0,1,1-.29-.29A.29.29,0,0,1,60.581,406.29Zm0,0" transform="translate(-58.258 -394.211)"/>
  <path id="Path_58" data-name="Path 58" d="M.871,14.866h9.64A.872.872,0,0,0,11.382,14V3.194a.292.292,0,0,0-.085-.205l-2.9-2.9L8.388.08,8.372.066,8.365.061,8.35.049l-.006,0L8.325.034l0,0L8.3.022h0L8.273.013h0L8.245.006H8.238L8.217,0H.871A.872.872,0,0,0,0,.871V14A.872.872,0,0,0,.871,14.866ZM8.479.991,10.391,2.9H8.479ZM.581.871a.291.291,0,0,1,.29-.29H7.9V3.194a.29.29,0,0,0,.29.29H10.8V14a.291.291,0,0,1-.29.29H.871A.291.291,0,0,1,.581,14Zm0,0" transform="translate(0 0)"/>
  <path id="Path_59" data-name="Path 59" d="M68.613,65.226A2.613,2.613,0,1,0,66,62.613,2.616,2.616,0,0,0,68.613,65.226Zm2.011-2.9H68.9V60.6A2.037,2.037,0,0,1,70.625,62.323Zm-2.3-1.721v2.011a.29.29,0,0,0,.29.29h2.011a2.032,2.032,0,1,1-2.3-2.3Zm0,0" transform="translate(-64.084 -58.258)"/>
  <path id="Path_60" data-name="Path 60" d="M100,286.29a.29.29,0,0,0,.29.29h6.156a.29.29,0,1,0,0-.581H100.29A.29.29,0,0,0,100,286.29Zm0,0" transform="translate(-97.096 -277.696)"/>
  <path id="Path_61" data-name="Path 61" d="M106.446,346H100.29a.29.29,0,1,0,0,.581h6.156a.29.29,0,1,0,0-.581Zm0,0" transform="translate(-97.096 -335.954)"/>
  <path id="Path_62" data-name="Path 62" d="M106.446,406H100.29a.29.29,0,1,0,0,.581h6.156a.29.29,0,1,0,0-.581Zm0,0" transform="translate(-97.096 -394.211)"/>
  <path id="Path_63" data-name="Path 63" d="M433.161,0A1.163,1.163,0,0,0,432,1.161V12.253a.31.31,0,0,0,.018.1l.871,2.323a.29.29,0,0,0,.544,0l.871-2.323a.309.309,0,0,0,.018-.1V1.161A1.161,1.161,0,0,0,433.161,0Zm-.581,2.323h1.161V2.9h-1.161Zm0,1.161h1.161v8.479h-1.161Zm.581-2.9a.581.581,0,0,1,.581.581v.581h-1.161V1.161A.581.581,0,0,1,433.161.581Zm0,13.168-.452-1.206h.9Zm0,0" transform="translate(-419.456 0)"/>
</svg>
