<svg id="subscription" xmlns="http://www.w3.org/2000/svg" width="33.145" height="30.531" viewBox="0 0 33.145 30.531">
  <path id="Path_15" data-name="Path 15" d="M31.147,247.222a.971.971,0,0,0-1.079.849,13.346,13.346,0,0,1-26.1,1.966l1.16.637a.971.971,0,1,0,.935-1.7l-2.98-1.637a.971.971,0,0,0-1.318.383L.121,250.694A.971.971,0,0,0,.5,252.013a1.007,1.007,0,0,0,1.319-.382l.381-.692A15.289,15.289,0,0,0,32,248.3a.971.971,0,0,0-.849-1.079Zm0,0" transform="translate(-0.001 -231.212)" fill="#fff"/>
  <path id="Path_16" data-name="Path 16" d="M59.215,8.3a.971.971,0,0,0-1.276.507l-.305.707A15.416,15.416,0,0,0,52.711,3.1,15.158,15.158,0,0,0,43.478,0a15.284,15.284,0,0,0-14.955,12.1.971.971,0,1,0,1.9.4A13.349,13.349,0,0,1,55.976,10.6l-1.23-.529a.971.971,0,0,0-.767,1.784L57.1,13.2a.97.97,0,0,0,1.276-.507l1.345-3.119A.971.971,0,0,0,59.215,8.3Zm0,0" transform="translate(-26.657 -0.004)" fill="#fff"/>
  <path id="Path_17" data-name="Path 17" d="M132.626,122.6l-2.871,4.677a.324.324,0,0,1-.29.18.32.32,0,0,1-.143-.034,1.169,1.169,0,0,0-1.567.529l-.173.348a1.17,1.17,0,0,0,.529,1.567l10.655,5.28a1.169,1.169,0,0,0,1.567-.529l.173-.348a1.17,1.17,0,0,0-.529-1.567.324.324,0,0,1-.146-.433l1.982-5.117a5.147,5.147,0,0,0-9.186-4.551Zm0,0" transform="translate(-119.208 -112.37)" fill="#fff"/>
  <path id="Path_18" data-name="Path 18" d="M225.539,349.194a1.539,1.539,0,0,0,1.837-.441l-2.6-1.288A1.475,1.475,0,0,0,225.539,349.194Zm0,0" transform="translate(-210.172 -324.972)" fill="#fff"/>
  <path id="Path_19" data-name="Path 19" d="M306.148,83.476c.01-.019.021-.037.031-.057a1.378,1.378,0,0,0-.623-1.846,1.344,1.344,0,0,0-1.846.623c-.01.02-.017.04-.026.059a7.047,7.047,0,0,1,2.465,1.221Zm0,0" transform="translate(-284.025 -76.171)" fill="#fff"/>
</svg>
